<svg width="110" height="84" viewBox="0 0 110 84" fill="none" xmlns="http://www.w3.org/2000/svg">
<path d="M71.6328 0.668945C71.6328 0.668945 71.1478 2.13549 71.0004 3.1063C70.7858 4.51902 71.0005 6.76233 71.0005 6.76233L71.0005 9.80902C71.0005 9.80902 71.0005 13.4651 71.0005 12.8557C71.0005 12.2464 71.0005 13.4651 71.0004 15.9024C71.0003 18.3398 70.6691 18.9972 71.0005 20.1678C71.368 21.4665 73.0153 21.3537 73.5299 22.6051C74.1731 24.1694 72.8975 27.4798 72.8975 27.4798L71.6328 31.7452L71.0005 34.1826C71.0005 34.1826 71.0399 35.5209 71.6328 36.0106C72.3828 36.63 74.1622 36.0106 74.1622 36.0106C74.1622 36.0106 76.5917 35.8977 76.0593 35.4012C76.0593 35.4012 74.1622 34.7919 74.7946 34.1826C75.427 33.5732 77.3241 34.5172 77.3241 34.5172C79.2211 35.1265 78.4402 35.1265 79.2211 35.1265C80.0021 35.1265 80.4859 33.5732 79.8535 32.9639C79.3596 32.488 78.6303 31.9223 77.9564 31.7452" stroke="black" stroke-width="0.5"/>
<path d="M77.0475 37.8345C77.6743 39.0897 78.9279 39.0897 77.6743 40.9725M77.6743 40.9725C77.0475 41.6001 79.5547 42.8553 79.5547 42.8553M77.6743 40.9725C80.1815 40.3449 85.1959 39.7173 83.9423 40.9725C82.6887 42.2277 84.5691 40.3449 82.6887 42.2277C80.8083 44.1105 80.5976 43.0663 79.5547 44.1105C78.5118 45.1548 79.5547 45.9934 80.1815 46.621C80.8083 47.2486 83.3155 47.2486 82.6887 48.5038C82.0619 49.759 81.7804 50.4243 82.0619 51.6418C82.3378 52.8357 82.9016 54.7624 83.9423 55.4075C84.6004 55.8154 85.8227 56.0351 85.8227 56.0351C85.8227 56.0351 88.2953 56.8949 89.5835 56.0351C91.4639 54.7799 93.3443 54.1522 93.3443 54.1522L97.7319 51.6418C97.7319 51.6418 100.326 49.3886 101.493 49.759C102.153 49.9685 102.883 51.1516 103.373 51.6418" stroke="black" stroke-width="0.5"/>
<path d="M101.48 50.2231L103.373 56.5762V60.3881L102.111 63.5646L100.219 65.4705L91.386 71.1883L86.3388 75.0001" stroke="black" stroke-width="0.5"/>
<path d="M87.8874 14.6345C87.8874 14.6345 83.4027 14.4086 80.3231 15.2278C78.2043 15.7913 76.3216 15.659 74.6499 17.0076C74.1212 17.434 74.2397 17.5724 74.0195 18.1941C73.8638 18.6337 74.0195 19.3806 74.0195 19.3806C74.2397 20.0023 73.9893 20.3599 74.6499 20.5672C75.6943 20.8948 77.1713 19.3806 77.1713 19.3806C77.1713 19.3806 78.2544 18.5398 79.0624 18.1941C80.2051 17.7052 82.2142 17.6008 82.2142 17.6008H84.7356L81.5838 19.3806L78.432 20.5672L77.1713 21.1604C76.9511 21.7821 77.7378 22.2967 78.432 22.347C78.9809 22.3867 79.6927 21.7537 79.6927 21.7537C79.6927 21.7537 80.8453 21.0305 81.5838 20.5672" stroke="black" stroke-width="0.5"/>
<path d="M99.1974 22.3486C99.8343 24.0813 100.467 25.8131 101.104 27.544C101.317 28.1225 101.794 28.7612 101.822 29.3876C101.882 30.7667 100.885 32.2624 100.184 33.3874C99.2472 34.8917 98.2458 36.4168 97.1787 37.8343" stroke="black" stroke-width="0.5" stroke-linecap="round"/>
<path d="M7.94534 32.3868C8.45201 32.3868 8.99201 32.4401 9.56534 32.5468C10.152 32.6535 10.6253 32.7935 10.9853 32.9668C11.0787 33.0068 11.1387 33.0468 11.1653 33.0868C11.192 33.1268 11.212 33.2001 11.2253 33.3068L11.4253 35.3668C11.4253 35.4068 11.3853 35.4335 11.3053 35.4468C11.2387 35.4601 11.1987 35.4401 11.1853 35.3868C10.9453 34.4668 10.5053 33.7868 9.86534 33.3468C9.23868 32.9068 8.45868 32.6868 7.52534 32.6868C6.83201 32.6868 6.20534 32.8735 5.64534 33.2468C5.09868 33.6201 4.66534 34.1335 4.34534 34.7868C4.03868 35.4268 3.88534 36.1535 3.88534 36.9668C3.88534 37.7935 4.03868 38.5935 4.34534 39.3668C4.66534 40.1268 5.13868 40.7468 5.76534 41.2268C6.40534 41.7068 7.17201 41.9468 8.06534 41.9468C9.74534 41.9468 10.8453 41.0268 11.3653 39.1868C11.3653 39.1468 11.3987 39.1268 11.4653 39.1268C11.492 39.1268 11.5187 39.1401 11.5453 39.1668C11.5853 39.1801 11.6053 39.1935 11.6053 39.2068L11.3453 41.3268C11.332 41.4335 11.312 41.5068 11.2853 41.5468C11.2587 41.5868 11.1853 41.6335 11.0653 41.6868C10.0387 42.0468 8.97201 42.2268 7.86534 42.2268C6.59868 42.2268 5.55868 41.9735 4.74534 41.4668C3.93201 40.9601 3.34534 40.3268 2.98534 39.5668C2.62534 38.8068 2.44534 38.0401 2.44534 37.2668C2.44534 36.3601 2.68534 35.5335 3.16534 34.7868C3.64534 34.0401 4.30534 33.4535 5.14534 33.0268C5.98534 32.6001 6.91868 32.3868 7.94534 32.3868ZM17.8503 42.2268C16.917 42.2268 16.0837 42.0068 15.3503 41.5668C14.6303 41.1268 14.0703 40.5335 13.6703 39.7868C13.2703 39.0401 13.0703 38.2335 13.0703 37.3668C13.0703 36.3268 13.337 35.4335 13.8703 34.6868C14.417 33.9268 15.1037 33.3535 15.9303 32.9668C16.7703 32.5801 17.6237 32.3868 18.4903 32.3868C19.4237 32.3868 20.2437 32.6201 20.9503 33.0868C21.6703 33.5401 22.217 34.1335 22.5903 34.8668C22.977 35.6001 23.1703 36.3668 23.1703 37.1668C23.1703 38.0601 22.9303 38.9001 22.4503 39.6868C21.9703 40.4601 21.3237 41.0801 20.5103 41.5468C19.697 42.0001 18.8103 42.2268 17.8503 42.2268ZM18.3703 41.8068C19.4103 41.8068 20.237 41.4401 20.8503 40.7068C21.477 39.9735 21.7903 38.9601 21.7903 37.6668C21.7903 36.7735 21.6303 35.9601 21.3103 35.2268C21.0037 34.4935 20.5503 33.9068 19.9503 33.4668C19.3503 33.0268 18.637 32.8068 17.8103 32.8068C16.7437 32.8068 15.917 33.1668 15.3303 33.8868C14.7437 34.5935 14.4503 35.5868 14.4503 36.8668C14.4503 37.7868 14.6037 38.6201 14.9103 39.3668C15.2303 40.1135 15.6837 40.7068 16.2703 41.1468C16.8703 41.5868 17.5703 41.8068 18.3703 41.8068ZM31.7733 34.0268C31.7866 34.2801 31.7933 34.6001 31.7933 34.9868C31.7933 35.0268 31.7533 35.0468 31.6733 35.0468C31.5933 35.0468 31.5533 35.0268 31.5533 34.9868C31.4866 34.3468 31.2666 33.8401 30.8933 33.4668C30.52 33.0801 30.0333 32.8868 29.4333 32.8868H28.8733C28.4066 32.8868 28.0666 32.9268 27.8533 33.0068C27.64 33.0735 27.4933 33.2001 27.4133 33.3868C27.3333 33.5735 27.2933 33.8668 27.2933 34.2668V37.2268C28.5733 37.2135 29.4466 37.1801 29.9133 37.1268C30.3933 37.0735 30.6666 37.0468 30.7333 37.0468C30.8 37.0468 30.8333 37.1868 30.8333 37.4668C30.8333 37.7735 30.8 37.9268 30.7333 37.9268C30.68 37.9268 30.4133 37.8935 29.9333 37.8268C29.4666 37.7468 28.5866 37.6935 27.2933 37.6668V40.2868C27.2933 40.7135 27.34 41.0268 27.4333 41.2268C27.5266 41.4135 27.7066 41.5468 27.9733 41.6268C28.2533 41.7068 28.6866 41.7468 29.2733 41.7468C29.3133 41.7468 29.3333 41.7868 29.3333 41.8668C29.3333 41.9468 29.3133 41.9868 29.2733 41.9868C28.7933 41.9868 28.4266 41.9801 28.1733 41.9668L26.6733 41.9468L25.5933 41.9668C25.3666 41.9801 25.0333 41.9868 24.5933 41.9868C24.5666 41.9868 24.5533 41.9468 24.5533 41.8668C24.5533 41.7868 24.5666 41.7468 24.5933 41.7468C25.0333 41.7468 25.3533 41.7135 25.5533 41.6468C25.7533 41.5801 25.8866 41.4535 25.9533 41.2668C26.0333 41.0668 26.0733 40.7668 26.0733 40.3668V34.2468C26.0733 33.8468 26.0333 33.5535 25.9533 33.3668C25.8866 33.1801 25.7533 33.0535 25.5533 32.9868C25.3533 32.9068 25.0333 32.8668 24.5933 32.8668C24.5666 32.8668 24.5533 32.8268 24.5533 32.7468C24.5533 32.6668 24.5666 32.6268 24.5933 32.6268H31.5533C31.6866 32.6268 31.7533 32.6801 31.7533 32.7868L31.7733 34.0268ZM40.3085 34.0268C40.3218 34.2801 40.3285 34.6001 40.3285 34.9868C40.3285 35.0268 40.2885 35.0468 40.2085 35.0468C40.1285 35.0468 40.0885 35.0268 40.0885 34.9868C40.0218 34.3468 39.8018 33.8401 39.4285 33.4668C39.0551 33.0801 38.5685 32.8868 37.9685 32.8868H37.4085C36.9418 32.8868 36.6018 32.9268 36.3885 33.0068C36.1751 33.0735 36.0285 33.2001 35.9485 33.3868C35.8685 33.5735 35.8285 33.8668 35.8285 34.2668V37.2268C37.1085 37.2135 37.9818 37.1801 38.4485 37.1268C38.9285 37.0735 39.2018 37.0468 39.2685 37.0468C39.3351 37.0468 39.3685 37.1868 39.3685 37.4668C39.3685 37.7735 39.3351 37.9268 39.2685 37.9268C39.2151 37.9268 38.9485 37.8935 38.4685 37.8268C38.0018 37.7468 37.1218 37.6935 35.8285 37.6668V40.2868C35.8285 40.7135 35.8751 41.0268 35.9685 41.2268C36.0618 41.4135 36.2418 41.5468 36.5085 41.6268C36.7885 41.7068 37.2218 41.7468 37.8085 41.7468C37.8485 41.7468 37.8685 41.7868 37.8685 41.8668C37.8685 41.9468 37.8485 41.9868 37.8085 41.9868C37.3285 41.9868 36.9618 41.9801 36.7085 41.9668L35.2085 41.9468L34.1285 41.9668C33.9018 41.9801 33.5685 41.9868 33.1285 41.9868C33.1018 41.9868 33.0885 41.9468 33.0885 41.8668C33.0885 41.7868 33.1018 41.7468 33.1285 41.7468C33.5685 41.7468 33.8885 41.7135 34.0885 41.6468C34.2885 41.5801 34.4218 41.4535 34.4885 41.2668C34.5685 41.0668 34.6085 40.7668 34.6085 40.3668V34.2468C34.6085 33.8468 34.5685 33.5535 34.4885 33.3668C34.4218 33.1801 34.2885 33.0535 34.0885 32.9868C33.8885 32.9068 33.5685 32.8668 33.1285 32.8668C33.1018 32.8668 33.0885 32.8268 33.0885 32.7468C33.0885 32.6668 33.1018 32.6268 33.1285 32.6268H40.0885C40.2218 32.6268 40.2885 32.6801 40.2885 32.7868L40.3085 34.0268ZM49.2036 39.3268C49.2036 39.2868 49.237 39.2668 49.3036 39.2668C49.3836 39.2668 49.4236 39.2868 49.4236 39.3268C49.3303 40.2868 49.2836 41.0735 49.2836 41.6868C49.2836 41.7935 49.2636 41.8735 49.2236 41.9268C49.1836 41.9668 49.1036 41.9868 48.9836 41.9868H41.6636C41.637 41.9868 41.6236 41.9468 41.6236 41.8668C41.6236 41.7868 41.637 41.7468 41.6636 41.7468C42.1036 41.7468 42.4236 41.7135 42.6236 41.6468C42.8236 41.5801 42.957 41.4535 43.0236 41.2668C43.1036 41.0668 43.1436 40.7668 43.1436 40.3668V34.2468C43.1436 33.8468 43.1036 33.5535 43.0236 33.3668C42.957 33.1801 42.8236 33.0535 42.6236 32.9868C42.4236 32.9068 42.1036 32.8668 41.6636 32.8668C41.637 32.8668 41.6236 32.8268 41.6236 32.7468C41.6236 32.6668 41.637 32.6268 41.6636 32.6268H48.6236C48.757 32.6268 48.8236 32.6801 48.8236 32.7868L48.8436 34.0268C48.857 34.2801 48.8636 34.6001 48.8636 34.9868C48.8636 35.0268 48.8236 35.0468 48.7436 35.0468C48.6636 35.0468 48.6236 35.0268 48.6236 34.9868C48.5703 34.3735 48.3436 33.8735 47.9436 33.4868C47.557 33.0868 47.077 32.8868 46.5036 32.8868H45.9436C45.477 32.8868 45.137 32.9268 44.9236 33.0068C44.7103 33.0735 44.5636 33.2001 44.4836 33.3868C44.4036 33.5735 44.3636 33.8668 44.3636 34.2668V37.0068C45.657 36.9935 46.537 36.9601 47.0036 36.9068C47.4836 36.8401 47.757 36.8068 47.8236 36.8068C47.8903 36.8068 47.9236 36.9468 47.9236 37.2268C47.9236 37.5335 47.8903 37.6868 47.8236 37.6868C47.7703 37.6868 47.5036 37.6535 47.0236 37.5868C46.5436 37.5068 45.657 37.4535 44.3636 37.4268V40.2868C44.3636 40.6735 44.4036 40.9668 44.4836 41.1668C44.5636 41.3535 44.7103 41.4868 44.9236 41.5668C45.1503 41.6335 45.4903 41.6668 45.9436 41.6668H46.9036C47.437 41.6668 47.917 41.4535 48.3436 41.0268C48.7703 40.5868 49.057 40.0201 49.2036 39.3268ZM58.481 39.3268C58.481 39.2868 58.5143 39.2668 58.581 39.2668C58.661 39.2668 58.701 39.2868 58.701 39.3268C58.6076 40.2868 58.561 41.0735 58.561 41.6868C58.561 41.7935 58.541 41.8735 58.501 41.9268C58.461 41.9668 58.381 41.9868 58.261 41.9868H50.941C50.9143 41.9868 50.901 41.9468 50.901 41.8668C50.901 41.7868 50.9143 41.7468 50.941 41.7468C51.381 41.7468 51.701 41.7135 51.901 41.6468C52.101 41.5801 52.2343 41.4535 52.301 41.2668C52.381 41.0668 52.421 40.7668 52.421 40.3668V34.2468C52.421 33.8468 52.381 33.5535 52.301 33.3668C52.2343 33.1801 52.101 33.0535 51.901 32.9868C51.701 32.9068 51.381 32.8668 50.941 32.8668C50.9143 32.8668 50.901 32.8268 50.901 32.7468C50.901 32.6668 50.9143 32.6268 50.941 32.6268H57.901C58.0343 32.6268 58.101 32.6801 58.101 32.7868L58.121 34.0268C58.1343 34.2801 58.141 34.6001 58.141 34.9868C58.141 35.0268 58.101 35.0468 58.021 35.0468C57.941 35.0468 57.901 35.0268 57.901 34.9868C57.8476 34.3735 57.621 33.8735 57.221 33.4868C56.8343 33.0868 56.3543 32.8868 55.781 32.8868H55.221C54.7543 32.8868 54.4143 32.9268 54.201 33.0068C53.9876 33.0735 53.841 33.2001 53.761 33.3868C53.681 33.5735 53.641 33.8668 53.641 34.2668V37.0068C54.9343 36.9935 55.8143 36.9601 56.281 36.9068C56.761 36.8401 57.0343 36.8068 57.101 36.8068C57.1676 36.8068 57.201 36.9468 57.201 37.2268C57.201 37.5335 57.1676 37.6868 57.101 37.6868C57.0476 37.6868 56.781 37.6535 56.301 37.5868C55.821 37.5068 54.9343 37.4535 53.641 37.4268V40.2868C53.641 40.6735 53.681 40.9668 53.761 41.1668C53.841 41.3535 53.9876 41.4868 54.201 41.5668C54.4276 41.6335 54.7676 41.6668 55.221 41.6668H56.181C56.7143 41.6668 57.1943 41.4535 57.621 41.0268C58.0476 40.5868 58.3343 40.0201 58.481 39.3268ZM4.08534 55.2468C4.08534 55.6468 4.18534 56.0001 4.38534 56.3068C4.59868 56.6001 4.85868 56.8468 5.16534 57.0468C5.47201 57.2468 5.87868 57.4801 6.38534 57.7468C6.93201 58.0401 7.37201 58.3001 7.70534 58.5268C8.03868 58.7401 8.31868 59.0135 8.54534 59.3468C8.77201 59.6801 8.88534 60.0801 8.88534 60.5468C8.88534 61.0401 8.74534 61.4935 8.46534 61.9068C8.19868 62.3068 7.81201 62.6268 7.30534 62.8668C6.79868 63.1068 6.20534 63.2268 5.52534 63.2268C4.55201 63.2268 3.74534 62.9935 3.10534 62.5268C3.03868 62.5001 2.99201 62.4601 2.96534 62.4068C2.95201 62.3535 2.93868 62.2668 2.92534 62.1468L2.72534 60.1668C2.71201 60.1135 2.73868 60.0801 2.80534 60.0668C2.88534 60.0535 2.93868 60.0735 2.96534 60.1268C3.15201 60.9001 3.51868 61.5601 4.06534 62.1068C4.62534 62.6401 5.24534 62.9068 5.92534 62.9068C6.39201 62.9068 6.79201 62.7735 7.12534 62.5068C7.47201 62.2268 7.64534 61.8001 7.64534 61.2268C7.64534 60.6135 7.44534 60.1135 7.04534 59.7268C6.64534 59.3401 6.06534 58.9468 5.30534 58.5468C4.77201 58.2535 4.34534 58.0001 4.02534 57.7868C3.71868 57.5601 3.45868 57.2868 3.24534 56.9668C3.03201 56.6468 2.92534 56.2601 2.92534 55.8068C2.92534 55.0468 3.21868 54.4535 3.80534 54.0268C4.39201 53.6001 5.10534 53.3868 5.94534 53.3868C6.65201 53.3868 7.31868 53.5401 7.94534 53.8468C8.06534 53.9135 8.13868 53.9668 8.16534 54.0068C8.20534 54.0335 8.23201 54.0935 8.24534 54.1868L8.38534 55.9268C8.38534 55.9801 8.34534 56.0135 8.26534 56.0268C8.19868 56.0401 8.15868 56.0201 8.14534 55.9668C8.07868 55.6335 7.92534 55.2935 7.68534 54.9468C7.45868 54.5868 7.15868 54.2868 6.78534 54.0468C6.42534 53.8068 6.02534 53.6868 5.58534 53.6868C5.10534 53.6868 4.73201 53.8335 4.46534 54.1268C4.21201 54.4201 4.08534 54.7935 4.08534 55.2468ZM15.0769 63.2268C14.1436 63.2268 13.3102 63.0068 12.5769 62.5668C11.8569 62.1268 11.2969 61.5335 10.8969 60.7868C10.4969 60.0401 10.2969 59.2335 10.2969 58.3668C10.2969 57.3268 10.5636 56.4335 11.0969 55.6868C11.6436 54.9268 12.3302 54.3535 13.1569 53.9668C13.9969 53.5801 14.8502 53.3868 15.7169 53.3868C16.6502 53.3868 17.4702 53.6201 18.1769 54.0868C18.8969 54.5401 19.4436 55.1335 19.8169 55.8668C20.2036 56.6001 20.3969 57.3668 20.3969 58.1668C20.3969 59.0601 20.1569 59.9001 19.6769 60.6868C19.1969 61.4601 18.5502 62.0801 17.7369 62.5468C16.9236 63.0001 16.0369 63.2268 15.0769 63.2268ZM15.5969 62.8068C16.6369 62.8068 17.4636 62.4401 18.0769 61.7068C18.7036 60.9735 19.0169 59.9601 19.0169 58.6668C19.0169 57.7735 18.8569 56.9601 18.5369 56.2268C18.2302 55.4935 17.7769 54.9068 17.1769 54.4668C16.5769 54.0268 15.8636 53.8068 15.0369 53.8068C13.9702 53.8068 13.1436 54.1668 12.5569 54.8868C11.9702 55.5935 11.6769 56.5868 11.6769 57.8668C11.6769 58.7868 11.8302 59.6201 12.1369 60.3668C12.4569 61.1135 12.9102 61.7068 13.4969 62.1468C14.0969 62.5868 14.7969 62.8068 15.5969 62.8068ZM30.5799 55.5868C30.5799 54.9201 30.4732 54.4668 30.2599 54.2268C30.0465 53.9868 29.6332 53.8668 29.0199 53.8668C28.9799 53.8668 28.9599 53.8268 28.9599 53.7468C28.9599 53.6668 28.9799 53.6268 29.0199 53.6268L29.8199 53.6468C30.2199 53.6735 30.5399 53.6868 30.7799 53.6868C30.9665 53.6868 31.2465 53.6735 31.6199 53.6468L32.3799 53.6268C32.4065 53.6268 32.4199 53.6668 32.4199 53.7468C32.4199 53.8268 32.4065 53.8668 32.3799 53.8668C31.8465 53.8668 31.4799 53.9868 31.2799 54.2268C31.0932 54.4668 30.9999 54.9201 30.9999 55.5868V59.3068C30.9999 60.5468 30.6532 61.5135 29.9599 62.2068C29.2665 62.9001 28.3332 63.2468 27.1599 63.2468C26.4132 63.2468 25.7332 63.1001 25.1199 62.8068C24.5065 62.5001 24.0199 62.0668 23.6599 61.5068C23.2999 60.9468 23.1199 60.2801 23.1199 59.5068V55.2468C23.1199 54.8468 23.0799 54.5535 22.9999 54.3668C22.9332 54.1801 22.7932 54.0535 22.5799 53.9868C22.3799 53.9068 22.0665 53.8668 21.6399 53.8668C21.5999 53.8668 21.5799 53.8268 21.5799 53.7468C21.5799 53.6668 21.5999 53.6268 21.6399 53.6268L22.5399 53.6468C23.0199 53.6735 23.3999 53.6868 23.6799 53.6868C24.0132 53.6868 24.4332 53.6735 24.9399 53.6468L25.7999 53.6268C25.8399 53.6268 25.8599 53.6668 25.8599 53.7468C25.8599 53.8268 25.8399 53.8668 25.7999 53.8668C25.3732 53.8668 25.0532 53.9068 24.8399 53.9868C24.6265 54.0668 24.4799 54.2068 24.3999 54.4068C24.3332 54.5935 24.2999 54.8868 24.2999 55.2868V58.9868C24.2999 60.2268 24.6065 61.1468 25.2199 61.7468C25.8465 62.3335 26.6465 62.6268 27.6199 62.6268C28.5399 62.6268 29.2599 62.3468 29.7799 61.7868C30.3132 61.2135 30.5799 60.4001 30.5799 59.3468V55.5868ZM36.0824 61.2868C36.0824 61.6735 36.1157 61.9601 36.1824 62.1468C36.2624 62.3335 36.4024 62.4668 36.6024 62.5468C36.8157 62.6268 37.129 62.6668 37.5424 62.6668H38.8624C39.569 62.6668 40.129 62.4468 40.5424 62.0068C40.969 61.5668 41.2557 60.9601 41.4024 60.1868C41.4024 60.1601 41.429 60.1468 41.4824 60.1468C41.5224 60.1468 41.5557 60.1535 41.5824 60.1668C41.6224 60.1801 41.6424 60.2001 41.6424 60.2268C41.549 60.8401 41.5024 61.6601 41.5024 62.6868C41.5024 62.7935 41.4757 62.8735 41.4224 62.9268C41.3824 62.9668 41.309 62.9868 41.2024 62.9868H33.3824C33.3557 62.9868 33.3424 62.9468 33.3424 62.8668C33.3424 62.7868 33.3557 62.7468 33.3824 62.7468C33.8224 62.7468 34.1424 62.7135 34.3424 62.6468C34.5424 62.5801 34.6757 62.4535 34.7424 62.2668C34.809 62.0668 34.8424 61.7668 34.8424 61.3668V55.2468C34.8424 54.8468 34.8024 54.5535 34.7224 54.3668C34.6557 54.1801 34.5224 54.0535 34.3224 53.9868C34.1224 53.9068 33.809 53.8668 33.3824 53.8668C33.3557 53.8668 33.3424 53.8268 33.3424 53.7468C33.3424 53.6668 33.3557 53.6268 33.3824 53.6268L34.2824 53.6468C34.789 53.6735 35.1824 53.6868 35.4624 53.6868C35.7957 53.6868 36.2157 53.6735 36.7224 53.6468L37.5624 53.6268C37.6024 53.6268 37.6224 53.6668 37.6224 53.7468C37.6224 53.8268 37.6024 53.8668 37.5624 53.8668C37.1224 53.8668 36.8024 53.9068 36.6024 53.9868C36.4024 54.0535 36.2624 54.1868 36.1824 54.3868C36.1157 54.5735 36.0824 54.8668 36.0824 55.2668V61.2868Z" fill="black"/>
<path d="M64.8399 51.5547C64.6031 52.2651 64.3503 52.6342 64.2335 53.3738C64.1227 54.0756 64.1227 54.4913 64.2335 55.193C64.3503 55.9327 64.7231 56.2725 64.8399 57.0121C64.9507 57.7139 65.0268 58.1459 64.8399 58.8313C64.7006 59.3422 64.2335 60.0441 64.2335 60.0441C64.2335 60.0441 63.8639 60.4136 63.6271 60.6505" stroke="black" stroke-width="0.5" stroke-linecap="round"/>
<path d="M60.4915 53.3735C60.2749 53.8472 60.0438 54.0932 59.937 54.5863C59.8356 55.0541 59.8356 55.3313 59.937 55.7991C60.0438 56.2922 60.3847 56.5187 60.4915 57.0118C60.5928 57.4797 60.6624 57.7677 60.4915 58.2246C60.3641 58.5652 59.937 59.0331 59.937 59.0331C59.937 59.0331 59.599 59.2795 59.3824 59.4374" stroke="black" stroke-width="0.5" stroke-linecap="round"/>
<path d="M68.9809 53.3735C68.7643 53.8472 68.5332 54.0932 68.4264 54.5863C68.325 55.0541 68.325 55.3313 68.4264 55.7991C68.5332 56.2922 68.8741 56.5187 68.9809 57.0118C69.0822 57.4797 69.1518 57.7677 68.9809 58.2246C68.8535 58.5652 68.4264 59.0331 68.4264 59.0331C68.4264 59.0331 68.0884 59.2795 67.8718 59.4374" stroke="black" stroke-width="0.5" stroke-linecap="round"/>
<path d="M54.5314 71.5655H59.3824H69.691H74.5421C74.5421 71.5655 74.1475 72.961 73.9357 73.3846C73.3293 74.5974 72.7229 74.5974 72.7229 74.5974H70.9038H65.4463H60.5952H56.3505C56.3505 74.5974 55.5033 74.1563 55.1378 73.3846C54.8336 72.7426 54.5314 71.5655 54.5314 71.5655Z" fill="white"/>
<path d="M57.5633 62.4697C57.5633 62.4697 57.0025 65.871 57.5633 67.9272C57.9813 69.4598 59.3824 71.5655 59.3824 71.5655M59.3824 71.5655H54.5314C54.5314 71.5655 54.8336 72.7426 55.1378 73.3846C55.5033 74.1563 56.3505 74.5974 56.3505 74.5974H60.5952H65.4463H70.9038H72.7229C72.7229 74.5974 73.3293 74.5974 73.9357 73.3846C74.1475 72.961 74.5421 71.5655 74.5421 71.5655H69.691H59.3824Z" stroke="black" stroke-width="0.5"/>
<path d="M75.1484 68.5331C73.9124 69.3788 72.4 69.2045 70.9037 69.1395V67.3203H72.1165C73.3293 67.3203 73.9357 66.7139 73.9357 66.7139C75.1484 65.5012 74.4652 64.8179 73.9357 64.2884C73.0984 63.4511 70.9037 64.2884 70.9037 64.2884V62.4692H71.5101C71.5101 62.4692 73.4641 61.9793 74.5421 62.4692C75.4567 62.885 75.9881 63.3556 76.3612 64.2884C76.713 65.1679 76.3612 66.7139 76.3612 66.7139C76.3612 66.7139 75.9776 67.9657 75.1484 68.5331Z" fill="white"/>
<path d="M69.0846 71.565C69.0846 71.565 70.9037 70.0867 70.9037 69.1395M70.9037 69.1395C72.4 69.2045 73.9124 69.3788 75.1484 68.5331C75.9776 67.9657 76.3612 66.7139 76.3612 66.7139C76.3612 66.7139 76.713 65.1679 76.3612 64.2884C75.9881 63.3556 75.4567 62.885 74.5421 62.4692C73.4641 61.9793 71.5101 62.4692 71.5101 62.4692H70.9037V64.2884C70.9037 64.2884 73.0984 63.4511 73.9357 64.2884C74.4652 64.8179 75.1484 65.5012 73.9357 66.7139C73.9357 66.7139 73.3293 67.3203 72.1165 67.3203C71.6429 67.3203 70.9037 67.3203 70.9037 67.3203C70.9037 67.3203 70.9037 68.1922 70.9037 69.1395Z" stroke="black" stroke-width="0.5"/>
<path d="M70.9037 67.3205V64.2886" stroke="black" stroke-width="0.5"/>
<path d="M57.2609 62.4697H70.9037" stroke="black" stroke-width="0.5"/>
</svg>
