<svg width="105" height="80" viewBox="0 0 105 80" fill="none" xmlns="http://www.w3.org/2000/svg">
<path d="M71.6328 0.669006C71.6328 0.669006 71.1478 2.13555 71.0004 3.10636C70.7858 4.51908 71.0005 6.76239 71.0005 6.76239L71.0005 9.80908C71.0005 9.80908 71.0005 13.4651 71.0005 12.8558C71.0005 12.2464 71.0005 13.4651 71.0004 15.9025C71.0003 18.3398 70.6691 18.9972 71.0005 20.1678C71.368 21.4665 73.0153 21.3537 73.5299 22.6052C74.1731 24.1695 72.8975 27.4799 72.8975 27.4799L71.6328 31.7453L71.0005 34.1826C71.0005 34.1826 71.0399 35.5209 71.6328 36.0106C72.3828 36.6301 74.1622 36.0106 74.1622 36.0106C74.1622 36.0106 76.5917 35.8978 76.0593 35.4013C76.0593 35.4013 74.1622 34.792 74.7946 34.1826C75.427 33.5733 77.3241 34.5173 77.3241 34.5173C79.2211 35.1266 78.4402 35.1266 79.2211 35.1266C80.0021 35.1266 80.4859 33.5733 79.8535 32.9639C79.3596 32.488 78.6303 31.9224 77.9564 31.7453" stroke="black" stroke-width="0.5"/>
<path d="M77.0475 37.8345C77.6743 39.0897 78.9279 39.0897 77.6743 40.9725M77.6743 40.9725C77.0475 41.6001 79.5547 42.8554 79.5547 42.8554M77.6743 40.9725C80.1815 40.3449 85.1959 39.7173 83.9423 40.9725C82.6887 42.2277 84.5691 40.3449 82.6887 42.2277C80.8083 44.1106 80.5976 43.0663 79.5547 44.1106C78.5118 45.1548 79.5547 45.9934 80.1815 46.621C80.8083 47.2486 83.3155 47.2486 82.6887 48.5038C82.0619 49.759 81.7804 50.4243 82.0619 51.6418C82.3378 52.8358 82.9016 54.7625 83.9423 55.4075C84.6004 55.8154 85.8227 56.0351 85.8227 56.0351C85.8227 56.0351 88.2953 56.8949 89.5835 56.0351C91.4639 54.7799 93.3443 54.1523 93.3443 54.1523L97.7319 51.6418C97.7319 51.6418 100.326 49.3886 101.493 49.759C102.153 49.9686 102.883 51.1517 103.373 51.6418" stroke="black" stroke-width="0.5"/>
<path d="M101.48 50.223L103.373 56.5761V60.3879L102.111 63.5645L100.219 65.4704L91.386 71.1882L86.3388 75" stroke="black" stroke-width="0.5"/>
<path d="M87.8874 14.6345C87.8874 14.6345 83.4027 14.4087 80.3231 15.2278C78.2043 15.7914 76.3216 15.659 74.6499 17.0076C74.1212 17.4341 74.2397 17.5725 74.0195 18.1942C73.8638 18.6338 74.0195 19.3807 74.0195 19.3807C74.2397 20.0024 73.9893 20.36 74.6499 20.5672C75.6943 20.8949 77.1713 19.3807 77.1713 19.3807C77.1713 19.3807 78.2544 18.5398 79.0624 18.1942C80.2051 17.7053 82.2142 17.6009 82.2142 17.6009H84.7356L81.5838 19.3807L78.432 20.5672L77.1713 21.1605C76.9511 21.7822 77.7378 22.2968 78.432 22.347C78.9809 22.3868 79.6927 21.7538 79.6927 21.7538C79.6927 21.7538 80.8453 21.0306 81.5838 20.5672" stroke="black" stroke-width="0.5"/>
<path d="M99.1974 22.3489C99.8343 24.0815 100.467 25.8133 101.104 27.5443C101.317 28.1228 101.794 28.7614 101.822 29.3878C101.882 30.767 100.885 32.2626 100.184 33.3877C99.2472 34.8919 98.2458 36.4171 97.1787 37.8345" stroke="black" stroke-width="0.5" stroke-linecap="round"/>
<path d="M7.94534 32.387C8.45201 32.387 8.99201 32.4403 9.56534 32.547C10.152 32.6537 10.6253 32.7937 10.9853 32.967C11.0787 33.007 11.1387 33.047 11.1653 33.087C11.192 33.127 11.212 33.2003 11.2253 33.307L11.4253 35.367C11.4253 35.407 11.3853 35.4337 11.3053 35.447C11.2387 35.4603 11.1987 35.4403 11.1853 35.387C10.9453 34.467 10.5053 33.787 9.86534 33.347C9.23868 32.907 8.45868 32.687 7.52534 32.687C6.83201 32.687 6.20534 32.8737 5.64534 33.247C5.09868 33.6203 4.66534 34.1337 4.34534 34.787C4.03868 35.427 3.88534 36.1537 3.88534 36.967C3.88534 37.7937 4.03868 38.5937 4.34534 39.367C4.66534 40.127 5.13868 40.747 5.76534 41.227C6.40534 41.707 7.17201 41.947 8.06534 41.947C9.74534 41.947 10.8453 41.027 11.3653 39.187C11.3653 39.147 11.3987 39.127 11.4653 39.127C11.492 39.127 11.5187 39.1403 11.5453 39.167C11.5853 39.1803 11.6053 39.1937 11.6053 39.207L11.3453 41.327C11.332 41.4337 11.312 41.507 11.2853 41.547C11.2587 41.587 11.1853 41.6337 11.0653 41.687C10.0387 42.047 8.97201 42.227 7.86534 42.227C6.59868 42.227 5.55868 41.9737 4.74534 41.467C3.93201 40.9603 3.34534 40.327 2.98534 39.567C2.62534 38.807 2.44534 38.0403 2.44534 37.267C2.44534 36.3603 2.68534 35.5337 3.16534 34.787C3.64534 34.0403 4.30534 33.4537 5.14534 33.027C5.98534 32.6003 6.91868 32.387 7.94534 32.387ZM17.8503 42.227C16.917 42.227 16.0837 42.007 15.3503 41.567C14.6303 41.127 14.0703 40.5337 13.6703 39.787C13.2703 39.0403 13.0703 38.2337 13.0703 37.367C13.0703 36.327 13.337 35.4337 13.8703 34.687C14.417 33.927 15.1037 33.3537 15.9303 32.967C16.7703 32.5803 17.6237 32.387 18.4903 32.387C19.4237 32.387 20.2437 32.6203 20.9503 33.087C21.6703 33.5403 22.217 34.1337 22.5903 34.867C22.977 35.6003 23.1703 36.367 23.1703 37.167C23.1703 38.0603 22.9303 38.9003 22.4503 39.687C21.9703 40.4603 21.3237 41.0803 20.5103 41.547C19.697 42.0003 18.8103 42.227 17.8503 42.227ZM18.3703 41.807C19.4103 41.807 20.237 41.4403 20.8503 40.707C21.477 39.9737 21.7903 38.9603 21.7903 37.667C21.7903 36.7737 21.6303 35.9603 21.3103 35.227C21.0037 34.4937 20.5503 33.907 19.9503 33.467C19.3503 33.027 18.637 32.807 17.8103 32.807C16.7437 32.807 15.917 33.167 15.3303 33.887C14.7437 34.5937 14.4503 35.587 14.4503 36.867C14.4503 37.787 14.6037 38.6203 14.9103 39.367C15.2303 40.1137 15.6837 40.707 16.2703 41.147C16.8703 41.587 17.5703 41.807 18.3703 41.807ZM31.7733 34.027C31.7866 34.2803 31.7933 34.6003 31.7933 34.987C31.7933 35.027 31.7533 35.047 31.6733 35.047C31.5933 35.047 31.5533 35.027 31.5533 34.987C31.4866 34.347 31.2666 33.8403 30.8933 33.467C30.52 33.0803 30.0333 32.887 29.4333 32.887H28.8733C28.4066 32.887 28.0666 32.927 27.8533 33.007C27.64 33.0737 27.4933 33.2003 27.4133 33.387C27.3333 33.5737 27.2933 33.867 27.2933 34.267V37.227C28.5733 37.2137 29.4466 37.1803 29.9133 37.127C30.3933 37.0737 30.6666 37.047 30.7333 37.047C30.8 37.047 30.8333 37.187 30.8333 37.467C30.8333 37.7737 30.8 37.927 30.7333 37.927C30.68 37.927 30.4133 37.8937 29.9333 37.827C29.4666 37.747 28.5866 37.6937 27.2933 37.667V40.287C27.2933 40.7137 27.34 41.027 27.4333 41.227C27.5266 41.4137 27.7066 41.547 27.9733 41.627C28.2533 41.707 28.6866 41.747 29.2733 41.747C29.3133 41.747 29.3333 41.787 29.3333 41.867C29.3333 41.947 29.3133 41.987 29.2733 41.987C28.7933 41.987 28.4266 41.9803 28.1733 41.967L26.6733 41.947L25.5933 41.967C25.3666 41.9803 25.0333 41.987 24.5933 41.987C24.5666 41.987 24.5533 41.947 24.5533 41.867C24.5533 41.787 24.5666 41.747 24.5933 41.747C25.0333 41.747 25.3533 41.7137 25.5533 41.647C25.7533 41.5803 25.8866 41.4537 25.9533 41.267C26.0333 41.067 26.0733 40.767 26.0733 40.367V34.247C26.0733 33.847 26.0333 33.5537 25.9533 33.367C25.8866 33.1803 25.7533 33.0537 25.5533 32.987C25.3533 32.907 25.0333 32.867 24.5933 32.867C24.5666 32.867 24.5533 32.827 24.5533 32.747C24.5533 32.667 24.5666 32.627 24.5933 32.627H31.5533C31.6866 32.627 31.7533 32.6803 31.7533 32.787L31.7733 34.027ZM40.3085 34.027C40.3218 34.2803 40.3285 34.6003 40.3285 34.987C40.3285 35.027 40.2885 35.047 40.2085 35.047C40.1285 35.047 40.0885 35.027 40.0885 34.987C40.0218 34.347 39.8018 33.8403 39.4285 33.467C39.0551 33.0803 38.5685 32.887 37.9685 32.887H37.4085C36.9418 32.887 36.6018 32.927 36.3885 33.007C36.1751 33.0737 36.0285 33.2003 35.9485 33.387C35.8685 33.5737 35.8285 33.867 35.8285 34.267V37.227C37.1085 37.2137 37.9818 37.1803 38.4485 37.127C38.9285 37.0737 39.2018 37.047 39.2685 37.047C39.3351 37.047 39.3685 37.187 39.3685 37.467C39.3685 37.7737 39.3351 37.927 39.2685 37.927C39.2151 37.927 38.9485 37.8937 38.4685 37.827C38.0018 37.747 37.1218 37.6937 35.8285 37.667V40.287C35.8285 40.7137 35.8751 41.027 35.9685 41.227C36.0618 41.4137 36.2418 41.547 36.5085 41.627C36.7885 41.707 37.2218 41.747 37.8085 41.747C37.8485 41.747 37.8685 41.787 37.8685 41.867C37.8685 41.947 37.8485 41.987 37.8085 41.987C37.3285 41.987 36.9618 41.9803 36.7085 41.967L35.2085 41.947L34.1285 41.967C33.9018 41.9803 33.5685 41.987 33.1285 41.987C33.1018 41.987 33.0885 41.947 33.0885 41.867C33.0885 41.787 33.1018 41.747 33.1285 41.747C33.5685 41.747 33.8885 41.7137 34.0885 41.647C34.2885 41.5803 34.4218 41.4537 34.4885 41.267C34.5685 41.067 34.6085 40.767 34.6085 40.367V34.247C34.6085 33.847 34.5685 33.5537 34.4885 33.367C34.4218 33.1803 34.2885 33.0537 34.0885 32.987C33.8885 32.907 33.5685 32.867 33.1285 32.867C33.1018 32.867 33.0885 32.827 33.0885 32.747C33.0885 32.667 33.1018 32.627 33.1285 32.627H40.0885C40.2218 32.627 40.2885 32.6803 40.2885 32.787L40.3085 34.027ZM49.2036 39.327C49.2036 39.287 49.237 39.267 49.3036 39.267C49.3836 39.267 49.4236 39.287 49.4236 39.327C49.3303 40.287 49.2836 41.0737 49.2836 41.687C49.2836 41.7937 49.2636 41.8737 49.2236 41.927C49.1836 41.967 49.1036 41.987 48.9836 41.987H41.6636C41.637 41.987 41.6236 41.947 41.6236 41.867C41.6236 41.787 41.637 41.747 41.6636 41.747C42.1036 41.747 42.4236 41.7137 42.6236 41.647C42.8236 41.5803 42.957 41.4537 43.0236 41.267C43.1036 41.067 43.1436 40.767 43.1436 40.367V34.247C43.1436 33.847 43.1036 33.5537 43.0236 33.367C42.957 33.1803 42.8236 33.0537 42.6236 32.987C42.4236 32.907 42.1036 32.867 41.6636 32.867C41.637 32.867 41.6236 32.827 41.6236 32.747C41.6236 32.667 41.637 32.627 41.6636 32.627H48.6236C48.757 32.627 48.8236 32.6803 48.8236 32.787L48.8436 34.027C48.857 34.2803 48.8636 34.6003 48.8636 34.987C48.8636 35.027 48.8236 35.047 48.7436 35.047C48.6636 35.047 48.6236 35.027 48.6236 34.987C48.5703 34.3737 48.3436 33.8737 47.9436 33.487C47.557 33.087 47.077 32.887 46.5036 32.887H45.9436C45.477 32.887 45.137 32.927 44.9236 33.007C44.7103 33.0737 44.5636 33.2003 44.4836 33.387C44.4036 33.5737 44.3636 33.867 44.3636 34.267V37.007C45.657 36.9937 46.537 36.9603 47.0036 36.907C47.4836 36.8403 47.757 36.807 47.8236 36.807C47.8903 36.807 47.9236 36.947 47.9236 37.227C47.9236 37.5337 47.8903 37.687 47.8236 37.687C47.7703 37.687 47.5036 37.6537 47.0236 37.587C46.5436 37.507 45.657 37.4537 44.3636 37.427V40.287C44.3636 40.6737 44.4036 40.967 44.4836 41.167C44.5636 41.3537 44.7103 41.487 44.9236 41.567C45.1503 41.6337 45.4903 41.667 45.9436 41.667H46.9036C47.437 41.667 47.917 41.4537 48.3436 41.027C48.7703 40.587 49.057 40.0203 49.2036 39.327ZM58.481 39.327C58.481 39.287 58.5143 39.267 58.581 39.267C58.661 39.267 58.701 39.287 58.701 39.327C58.6076 40.287 58.561 41.0737 58.561 41.687C58.561 41.7937 58.541 41.8737 58.501 41.927C58.461 41.967 58.381 41.987 58.261 41.987H50.941C50.9143 41.987 50.901 41.947 50.901 41.867C50.901 41.787 50.9143 41.747 50.941 41.747C51.381 41.747 51.701 41.7137 51.901 41.647C52.101 41.5803 52.2343 41.4537 52.301 41.267C52.381 41.067 52.421 40.767 52.421 40.367V34.247C52.421 33.847 52.381 33.5537 52.301 33.367C52.2343 33.1803 52.101 33.0537 51.901 32.987C51.701 32.907 51.381 32.867 50.941 32.867C50.9143 32.867 50.901 32.827 50.901 32.747C50.901 32.667 50.9143 32.627 50.941 32.627H57.901C58.0343 32.627 58.101 32.6803 58.101 32.787L58.121 34.027C58.1343 34.2803 58.141 34.6003 58.141 34.987C58.141 35.027 58.101 35.047 58.021 35.047C57.941 35.047 57.901 35.027 57.901 34.987C57.8476 34.3737 57.621 33.8737 57.221 33.487C56.8343 33.087 56.3543 32.887 55.781 32.887H55.221C54.7543 32.887 54.4143 32.927 54.201 33.007C53.9876 33.0737 53.841 33.2003 53.761 33.387C53.681 33.5737 53.641 33.867 53.641 34.267V37.007C54.9343 36.9937 55.8143 36.9603 56.281 36.907C56.761 36.8403 57.0343 36.807 57.101 36.807C57.1676 36.807 57.201 36.947 57.201 37.227C57.201 37.5337 57.1676 37.687 57.101 37.687C57.0476 37.687 56.781 37.6537 56.301 37.587C55.821 37.507 54.9343 37.4537 53.641 37.427V40.287C53.641 40.6737 53.681 40.967 53.761 41.167C53.841 41.3537 53.9876 41.487 54.201 41.567C54.4276 41.6337 54.7676 41.667 55.221 41.667H56.181C56.7143 41.667 57.1943 41.4537 57.621 41.027C58.0476 40.587 58.3343 40.0203 58.481 39.327ZM4.08534 55.247C4.08534 55.647 4.18534 56.0003 4.38534 56.307C4.59868 56.6003 4.85868 56.847 5.16534 57.047C5.47201 57.247 5.87868 57.4803 6.38534 57.747C6.93201 58.0403 7.37201 58.3003 7.70534 58.527C8.03868 58.7403 8.31868 59.0137 8.54534 59.347C8.77201 59.6803 8.88534 60.0803 8.88534 60.547C8.88534 61.0403 8.74534 61.4937 8.46534 61.907C8.19868 62.307 7.81201 62.627 7.30534 62.867C6.79868 63.107 6.20534 63.227 5.52534 63.227C4.55201 63.227 3.74534 62.9937 3.10534 62.527C3.03868 62.5003 2.99201 62.4603 2.96534 62.407C2.95201 62.3537 2.93868 62.267 2.92534 62.147L2.72534 60.167C2.71201 60.1137 2.73868 60.0803 2.80534 60.067C2.88534 60.0537 2.93868 60.0737 2.96534 60.127C3.15201 60.9003 3.51868 61.5603 4.06534 62.107C4.62534 62.6403 5.24534 62.907 5.92534 62.907C6.39201 62.907 6.79201 62.7737 7.12534 62.507C7.47201 62.227 7.64534 61.8003 7.64534 61.227C7.64534 60.6137 7.44534 60.1137 7.04534 59.727C6.64534 59.3403 6.06534 58.947 5.30534 58.547C4.77201 58.2537 4.34534 58.0003 4.02534 57.787C3.71868 57.5603 3.45868 57.287 3.24534 56.967C3.03201 56.647 2.92534 56.2603 2.92534 55.807C2.92534 55.047 3.21868 54.4537 3.80534 54.027C4.39201 53.6003 5.10534 53.387 5.94534 53.387C6.65201 53.387 7.31868 53.5403 7.94534 53.847C8.06534 53.9137 8.13868 53.967 8.16534 54.007C8.20534 54.0337 8.23201 54.0937 8.24534 54.187L8.38534 55.927C8.38534 55.9803 8.34534 56.0137 8.26534 56.027C8.19868 56.0403 8.15868 56.0203 8.14534 55.967C8.07868 55.6337 7.92534 55.2937 7.68534 54.947C7.45868 54.587 7.15868 54.287 6.78534 54.047C6.42534 53.807 6.02534 53.687 5.58534 53.687C5.10534 53.687 4.73201 53.8337 4.46534 54.127C4.21201 54.4203 4.08534 54.7937 4.08534 55.247ZM15.0769 63.227C14.1436 63.227 13.3102 63.007 12.5769 62.567C11.8569 62.127 11.2969 61.5337 10.8969 60.787C10.4969 60.0403 10.2969 59.2337 10.2969 58.367C10.2969 57.327 10.5636 56.4337 11.0969 55.687C11.6436 54.927 12.3302 54.3537 13.1569 53.967C13.9969 53.5803 14.8502 53.387 15.7169 53.387C16.6502 53.387 17.4702 53.6203 18.1769 54.087C18.8969 54.5403 19.4436 55.1337 19.8169 55.867C20.2036 56.6003 20.3969 57.367 20.3969 58.167C20.3969 59.0603 20.1569 59.9003 19.6769 60.687C19.1969 61.4603 18.5502 62.0803 17.7369 62.547C16.9236 63.0003 16.0369 63.227 15.0769 63.227ZM15.5969 62.807C16.6369 62.807 17.4636 62.4403 18.0769 61.707C18.7036 60.9737 19.0169 59.9603 19.0169 58.667C19.0169 57.7737 18.8569 56.9603 18.5369 56.227C18.2302 55.4937 17.7769 54.907 17.1769 54.467C16.5769 54.027 15.8636 53.807 15.0369 53.807C13.9702 53.807 13.1436 54.167 12.5569 54.887C11.9702 55.5937 11.6769 56.587 11.6769 57.867C11.6769 58.787 11.8302 59.6203 12.1369 60.367C12.4569 61.1137 12.9102 61.707 13.4969 62.147C14.0969 62.587 14.7969 62.807 15.5969 62.807ZM30.5799 55.587C30.5799 54.9203 30.4732 54.467 30.2599 54.227C30.0465 53.987 29.6332 53.867 29.0199 53.867C28.9799 53.867 28.9599 53.827 28.9599 53.747C28.9599 53.667 28.9799 53.627 29.0199 53.627L29.8199 53.647C30.2199 53.6737 30.5399 53.687 30.7799 53.687C30.9665 53.687 31.2465 53.6737 31.6199 53.647L32.3799 53.627C32.4065 53.627 32.4199 53.667 32.4199 53.747C32.4199 53.827 32.4065 53.867 32.3799 53.867C31.8465 53.867 31.4799 53.987 31.2799 54.227C31.0932 54.467 30.9999 54.9203 30.9999 55.587V59.307C30.9999 60.547 30.6532 61.5137 29.9599 62.207C29.2665 62.9003 28.3332 63.247 27.1599 63.247C26.4132 63.247 25.7332 63.1003 25.1199 62.807C24.5065 62.5003 24.0199 62.067 23.6599 61.507C23.2999 60.947 23.1199 60.2803 23.1199 59.507V55.247C23.1199 54.847 23.0799 54.5537 22.9999 54.367C22.9332 54.1803 22.7932 54.0537 22.5799 53.987C22.3799 53.907 22.0665 53.867 21.6399 53.867C21.5999 53.867 21.5799 53.827 21.5799 53.747C21.5799 53.667 21.5999 53.627 21.6399 53.627L22.5399 53.647C23.0199 53.6737 23.3999 53.687 23.6799 53.687C24.0132 53.687 24.4332 53.6737 24.9399 53.647L25.7999 53.627C25.8399 53.627 25.8599 53.667 25.8599 53.747C25.8599 53.827 25.8399 53.867 25.7999 53.867C25.3732 53.867 25.0532 53.907 24.8399 53.987C24.6265 54.067 24.4799 54.207 24.3999 54.407C24.3332 54.5937 24.2999 54.887 24.2999 55.287V58.987C24.2999 60.227 24.6065 61.147 25.2199 61.747C25.8465 62.3337 26.6465 62.627 27.6199 62.627C28.5399 62.627 29.2599 62.347 29.7799 61.787C30.3132 61.2137 30.5799 60.4003 30.5799 59.347V55.587ZM36.0824 61.287C36.0824 61.6737 36.1157 61.9603 36.1824 62.147C36.2624 62.3337 36.4024 62.467 36.6024 62.547C36.8157 62.627 37.129 62.667 37.5424 62.667H38.8624C39.569 62.667 40.129 62.447 40.5424 62.007C40.969 61.567 41.2557 60.9603 41.4024 60.187C41.4024 60.1603 41.429 60.147 41.4824 60.147C41.5224 60.147 41.5557 60.1537 41.5824 60.167C41.6224 60.1803 41.6424 60.2003 41.6424 60.227C41.549 60.8403 41.5024 61.6603 41.5024 62.687C41.5024 62.7937 41.4757 62.8737 41.4224 62.927C41.3824 62.967 41.309 62.987 41.2024 62.987H33.3824C33.3557 62.987 33.3424 62.947 33.3424 62.867C33.3424 62.787 33.3557 62.747 33.3824 62.747C33.8224 62.747 34.1424 62.7137 34.3424 62.647C34.5424 62.5803 34.6757 62.4537 34.7424 62.267C34.809 62.067 34.8424 61.767 34.8424 61.367V55.247C34.8424 54.847 34.8024 54.5537 34.7224 54.367C34.6557 54.1803 34.5224 54.0537 34.3224 53.987C34.1224 53.907 33.809 53.867 33.3824 53.867C33.3557 53.867 33.3424 53.827 33.3424 53.747C33.3424 53.667 33.3557 53.627 33.3824 53.627L34.2824 53.647C34.789 53.6737 35.1824 53.687 35.4624 53.687C35.7957 53.687 36.2157 53.6737 36.7224 53.647L37.5624 53.627C37.6024 53.627 37.6224 53.667 37.6224 53.747C37.6224 53.827 37.6024 53.867 37.5624 53.867C37.1224 53.867 36.8024 53.907 36.6024 53.987C36.4024 54.0537 36.2624 54.187 36.1824 54.387C36.1157 54.5737 36.0824 54.867 36.0824 55.267V61.287Z" fill="black"/>
<path d="M64.8399 51.5547C64.6031 52.2652 64.3503 52.6342 64.2335 53.3739C64.1227 54.0756 64.1227 54.4913 64.2335 55.1931C64.3503 55.9327 64.7231 56.2725 64.8399 57.0122C64.9507 57.7139 65.0268 58.146 64.8399 58.8314C64.7006 59.3422 64.2335 60.0441 64.2335 60.0441C64.2335 60.0441 63.8639 60.4137 63.6271 60.6505" stroke="black" stroke-width="0.5" stroke-linecap="round"/>
<path d="M60.4915 53.3739C60.2749 53.8475 60.0438 54.0935 59.937 54.5867C59.8356 55.0545 59.8356 55.3316 59.937 55.7994C60.0438 56.2926 60.3847 56.5191 60.4915 57.0122C60.5928 57.48 60.6624 57.7681 60.4915 58.225C60.3641 58.5656 59.937 59.0335 59.937 59.0335C59.937 59.0335 59.599 59.2799 59.3824 59.4377" stroke="black" stroke-width="0.5" stroke-linecap="round"/>
<path d="M68.9809 53.3739C68.7643 53.8475 68.5332 54.0935 68.4264 54.5867C68.325 55.0545 68.325 55.3316 68.4264 55.7994C68.5332 56.2926 68.8741 56.5191 68.9809 57.0122C69.0822 57.48 69.1518 57.7681 68.9809 58.225C68.8535 58.5656 68.4264 59.0335 68.4264 59.0335C68.4264 59.0335 68.0884 59.2799 67.8718 59.4377" stroke="black" stroke-width="0.5" stroke-linecap="round"/>
<path d="M54.5314 71.5655H59.3824H69.691H74.5421C74.5421 71.5655 74.1475 72.961 73.9357 73.3846C73.3293 74.5974 72.7229 74.5974 72.7229 74.5974H70.9038H65.4463H60.5952H56.3505C56.3505 74.5974 55.5033 74.1562 55.1378 73.3846C54.8336 72.7426 54.5314 71.5655 54.5314 71.5655Z" fill="white"/>
<path d="M57.5633 62.4697C57.5633 62.4697 57.0025 65.871 57.5633 67.9272C57.9813 69.4597 59.3824 71.5655 59.3824 71.5655M59.3824 71.5655H54.5314C54.5314 71.5655 54.8336 72.7426 55.1378 73.3846C55.5033 74.1562 56.3505 74.5974 56.3505 74.5974H60.5952H65.4463H70.9038H72.7229C72.7229 74.5974 73.3293 74.5974 73.9357 73.3846C74.1475 72.961 74.5421 71.5655 74.5421 71.5655H69.691H59.3824Z" stroke="black" stroke-width="0.5"/>
<path d="M75.1484 68.5335C73.9124 69.3792 72.4 69.205 70.9037 69.1399V67.3207H72.1165C73.3293 67.3207 73.9357 66.7144 73.9357 66.7144C75.1484 65.5016 74.4652 64.8183 73.9357 64.2888C73.0984 63.4516 70.9037 64.2888 70.9037 64.2888V62.4697H71.5101C71.5101 62.4697 73.4641 61.9797 74.5421 62.4696C75.4567 62.8854 75.9881 63.356 76.3612 64.2888C76.713 65.1683 76.3612 66.7144 76.3612 66.7144C76.3612 66.7144 75.9776 67.9662 75.1484 68.5335Z" fill="white"/>
<path d="M69.0846 71.5654C69.0846 71.5654 70.9037 70.0871 70.9037 69.1399M70.9037 69.1399C72.4 69.205 73.9124 69.3792 75.1484 68.5335C75.9776 67.9662 76.3612 66.7144 76.3612 66.7144C76.3612 66.7144 76.713 65.1683 76.3612 64.2888C75.9881 63.356 75.4567 62.8854 74.5421 62.4696C73.4641 61.9797 71.5101 62.4697 71.5101 62.4697H70.9037V64.2888C70.9037 64.2888 73.0984 63.4516 73.9357 64.2888C74.4652 64.8183 75.1484 65.5016 73.9357 66.7144C73.9357 66.7144 73.3293 67.3207 72.1165 67.3207C71.6429 67.3207 70.9037 67.3207 70.9037 67.3207C70.9037 67.3207 70.9037 68.1927 70.9037 69.1399Z" stroke="black" stroke-width="0.5"/>
<path d="M70.9037 67.3207V64.2888" stroke="black" stroke-width="0.5"/>
<path d="M57.2609 62.4697H70.9037" stroke="black" stroke-width="0.5"/>
</svg>
